<svg width="128" height="128" viewBox="0 0 128 128" fill="none" xmlns="http://www.w3.org/2000/svg">
<path fill-rule="evenodd" clip-rule="evenodd" d="M60.7654 12.9464C62.7371 11.6845 65.2625 11.6845 67.2341 12.9464L117.234 44.9464C120.025 46.7326 120.84 50.4433 119.053 53.2343C117.267 56.0254 113.556 56.8399 110.765 55.0536L106 52.0036V100C106 108.837 98.8363 116 89.9998 116H37.9998C29.1632 116 21.9998 108.837 21.9998 100V52.0036L17.2341 55.0536C14.443 56.8399 10.7324 56.0254 8.94614 53.2343C7.15987 50.4433 7.9744 46.7326 10.7654 44.9464L60.7654 12.9464ZM43.9998 71C43.9998 73.9565 45.1661 76.6406 47.0638 78.6172L61.1342 93.0588C62.7045 94.6706 65.2948 94.6703 66.8648 93.0583L80.6511 78.903C82.7161 76.9033 83.9998 74.1016 83.9998 71C83.9998 64.9249 79.0749 60 72.9998 60C69.2794 60 65.9905 64.0969 63.9998 66.9238C62.009 64.0969 58.7201 60 54.9998 60C48.9246 60 43.9998 64.9249 43.9998 71Z" fill="#8789A3"/>
</svg>
