<svg width="33" height="32" viewBox="0 0 33 32" fill="none" xmlns="http://www.w3.org/2000/svg">
<g clip-path="url(#clip0_0_1113)">
<g clip-path="url(#clip1_0_1113)">
<path d="M23.7024 24.8063V23.8247C23.7024 22.2612 22.8311 20.8556 21.4289 20.1562L18.7671 18.8289V13.8714C18.7671 12.5644 18.1579 11.3677 17.1385 10.6017C17.1917 10.3128 17.3688 10.0699 17.5991 9.99353C19.282 9.43506 20.4121 7.87094 20.4121 6.10125C20.4121 3.56621 18.141 1.64575 15.6146 2.05547C13.6609 2.372 12.1868 4.18719 12.1868 6.27685V9.04951C10.1368 11.2128 8.89681 14.144 8.89681 17.304V21.9373C8.89681 23.1653 9.24018 24.3404 9.88108 25.3542C8.34414 25.9488 7.2518 27.4397 7.2518 29.1798V30.0001H22.8796C24.2402 30.0001 25.3474 28.8959 25.3474 27.5392C25.3479 26.9776 25.195 26.4265 24.9052 25.945C24.6154 25.4635 24.1996 25.0699 23.7024 24.8063ZM20.8525 21.7105C21.5999 22.1529 22.0571 22.9476 22.0571 23.8247V24.2135L20.1939 23.594L20.8525 21.7105ZM13.8321 6.27685C13.8321 4.98295 14.712 3.86399 15.8789 3.67471C17.4573 3.41839 18.7671 4.62983 18.7671 6.10125C18.7677 6.61804 18.605 7.12189 18.3021 7.5412C17.9993 7.96051 17.5716 8.27396 17.0799 8.43701C16.4306 8.65237 15.926 9.15396 15.6679 9.79118L13.8321 8.8756V6.27685ZM10.5418 17.304C10.5418 14.7274 11.4775 12.2936 13.1878 10.3889L15.7579 11.6702C16.5995 12.0895 17.1221 12.9335 17.1221 13.8714V19.8427L19.3709 20.9645L18.6333 23.0755L15.477 22.026V14.3047H13.832V23.2084L16.3235 24.0368C15.2265 25.2515 13.4897 25.7405 11.8705 25.2024L11.8184 25.1849C10.9942 24.2982 10.5418 23.153 10.5418 21.9373V17.304ZM22.8796 28.3595H9.03774C9.364 27.4413 10.2223 26.7725 11.241 26.7221C11.314 26.7405 12.0855 27.0607 13.2103 27.0607C15.086 27.0607 16.8775 26.1572 17.983 24.5883L22.7042 26.1577C22.995 26.2541 23.248 26.4395 23.4272 26.6875C23.6064 26.9355 23.7027 27.2335 23.7024 27.5392C23.7024 27.9915 23.3334 28.3595 22.8797 28.3595H22.8796Z" fill="#8789A3"/>
</g>
</g>
<defs>
<clipPath id="clip0_0_1113">
<rect width="32.0856" height="32" fill="white" transform="translate(0.256592 -6.10352e-05)"/>
</clipPath>
<clipPath id="clip1_0_1113">
<rect width="28.0749" height="28" fill="white" transform="translate(2.26193 1.99994)"/>
</clipPath>
</defs>
</svg>
