<svg width="33" height="32" viewBox="0 0 33 32" fill="none" xmlns="http://www.w3.org/2000/svg">
<g clip-path="url(#clip0_0_1098)">
<path d="M29.2487 3H28.4849C27.2385 3 26.1294 3.59922 25.4319 4.52344H25.4299C24.1818 4.52344 23.072 5.12367 22.3749 6.04941V6.04688C20.269 6.04688 18.5561 7.75556 18.5561 9.85547V13.5192L16.2139 15.8229L13.8717 13.5192V9.85547C13.8717 7.75556 12.1589 6.04688 10.053 6.04688V6.04941C9.35586 5.12367 8.24602 4.52344 6.99795 4.52344H6.99591C6.2985 3.59922 5.18937 3 3.94292 3H3.17917V14.9651L8.59068 21.3828H7.7617V29H24.6662V21.3828H23.8372L29.2487 14.9651V3ZM12.3442 9.85547V12.164C11.8782 11.8835 11.3574 11.706 10.8167 11.6435V8.33203C10.8167 8.11062 10.7965 7.89328 10.7602 7.68203C11.6784 7.98012 12.3442 8.84137 12.3442 9.85547ZM7.7617 6.17738C8.65071 6.49182 9.28921 7.3388 9.28921 8.33203V11.7709C8.92559 11.8771 8.57994 12.037 8.26374 12.2452L7.7617 11.745V6.17738ZM15.4502 27.4766H9.28921V22.9062H15.4502V27.4766ZM15.4502 21.3828H10.5866L4.70668 14.4101V4.654C5.59569 4.96828 6.23419 5.81531 6.23419 6.80859V12.3763L11.0402 17.1695L12.1207 16.0925L9.38132 13.3604C9.6858 13.2145 10.0213 13.138 10.3692 13.138C10.9812 13.138 11.5566 13.3756 11.9894 13.8073L15.4502 17.2112V21.3828ZM23.1386 8.33203C23.1386 7.3388 23.7771 6.49182 24.6662 6.17738V11.745L24.1641 12.2452C23.8479 12.037 23.5023 11.8771 23.1386 11.7709V8.33203ZM20.0836 9.85547C20.0836 8.84142 20.7495 7.98012 21.6676 7.68203C21.6304 7.89672 21.6115 8.11416 21.6111 8.33203V11.6435C21.0705 11.706 20.5496 11.8835 20.0836 12.164V9.85547ZM23.1386 27.4766H16.9777V22.9062H23.1386V27.4766ZM27.7212 14.4101L21.8413 21.3828H16.9777V17.2112L20.4385 13.8073C20.8713 13.3756 21.4466 13.138 22.0586 13.138C22.4065 13.138 22.742 13.2145 23.0465 13.3604L20.3072 16.0924L21.3876 17.1695L26.1937 12.3763V6.80859C26.1937 5.81536 26.8322 4.96838 27.7212 4.65395V14.4101Z" fill="#8789A3"/>
<path d="M20.0836 24.4297H21.6111V25.9531H20.0836V24.4297Z" fill="#8789A3"/>
<path d="M10.8167 24.4297H12.3442V25.9531H10.8167V24.4297Z" fill="#8789A3"/>
</g>
<defs>
<clipPath id="clip0_0_1098">
<rect width="26.0695" height="26" fill="white" transform="translate(3.17917 3)"/>
</clipPath>
</defs>
</svg>
