<svg width="326" height="326" viewBox="0 0 326 326" fill="none" xmlns="http://www.w3.org/2000/svg">
<path d="M167.076 28.03L162.449 0.962494L157.862 28.0712C87.1112 30.7225 30.2875 87.7937 28.0412 158.646L0.95874 163.255L28.06 167.875C30.565 238.518 87.31 295.338 157.941 297.94L162.557 325.045L167.166 297.974C238.187 295.821 295.416 238.829 297.936 167.901L325.041 163.293L297.959 158.676C295.712 87.4525 238.33 30.145 167.076 28.03ZM247.026 78.9737C267.638 99.4693 279.955 126.855 281.612 155.875L201.28 142.195L243.415 82.75L183.659 125.031L169.87 44.3725C198.981 45.9742 226.468 58.3007 247.026 78.9737ZM185.965 138.865L184 127.041L232.277 92.5412L185.965 138.865ZM161.076 22.0712V130.397C154.409 130.772 147.014 133.626 141.737 138.1L161.076 22.0712ZM78.9737 78.9737C99.2808 58.5529 126.358 46.2682 155.099 44.4362L141.531 124.559L82.5437 82.8737L124.664 142.206L44.3875 155.875C46.0488 126.856 58.3649 99.4713 78.9737 78.9737ZM138.4 139.915L126.662 141.872L92.425 93.94L138.4 139.915ZM22.075 164.268H130.394C130.726 171.352 133.37 178.132 137.92 183.572L22.075 164.268ZM78.9737 247.026C58.4932 226.658 46.1975 199.483 44.4175 170.654L124.637 184.304L82.9412 243.179L141.561 201.666L155.159 281.568C126.397 279.746 99.297 267.459 78.9737 247.026ZM139.3 188.125L141.227 199.675L94.0675 233.35L139.3 188.125ZM132.962 163C132.961 157.059 134.721 151.251 138.021 146.31C141.321 141.369 146.011 137.518 151.5 135.244C156.988 132.969 163.028 132.373 168.855 133.531C174.683 134.689 180.035 137.55 184.237 141.75C188.439 145.951 191.3 151.303 192.46 157.13C193.619 162.957 193.025 168.997 190.752 174.486C188.478 179.975 184.628 184.666 179.689 187.967C174.749 191.268 168.941 193.03 163 193.03C155.037 193.022 147.403 189.856 141.772 184.226C136.14 178.596 132.972 170.963 132.962 163ZM199.292 184.652L233.219 232.15L187.66 186.588L199.292 184.652ZM163.742 303.902V195.625C170.72 195.466 177.457 193.044 182.939 188.725L163.742 303.902ZM247.026 247.026C226.485 267.68 199.029 280.004 169.945 281.624L183.625 201.194L243.051 243.273L201.302 184.315L281.579 170.673C279.797 199.495 267.502 226.663 247.026 247.026ZM195.625 161.601C195.306 154.618 192.839 147.903 188.56 142.375L303.921 161.601H195.625Z" fill="url(#paint0_linear_7_1503)"/>
<defs>
<linearGradient id="paint0_linear_7_1503" x1="163" y1="0.962494" x2="163" y2="325.045" gradientUnits="userSpaceOnUse">
<stop stop-color="#AC9A70"/>
<stop offset="1" stop-color="#DAD4A6"/>
</linearGradient>
</defs>
</svg>
